<svg xmlns="http://www.w3.org/2000/svg" viewBox="0 0 421.06 62.71"><defs><style>.cls-1{fill:#a159f9;}.cls-2{fill:#3a0563;}</style></defs><g id="Capa_2" data-name="Capa 2"><g id="Capa_1-2" data-name="Capa 1"><path class="cls-1" d="M13.54,16.15A13.56,13.56,0,0,0,0,29.69V54a2.93,2.93,0,0,0,5.86,0V40.85a13.55,13.55,0,1,0,7.68-24.7m0,21.23a7.67,7.67,0,0,1-7.68-7.64v0a7.69,7.69,0,1,1,7.68,7.69"/><path class="cls-2" d="M67.81,24.55c-7.88.12-13.33,6-13.25,13.25V48.26a2.76,2.76,0,1,0,5.52,0V37.8a7.74,7.74,0,1,1,15.47,0V48.26a2.76,2.76,0,1,0,5.51,0V37.8A13.18,13.18,0,0,0,67.81,24.55"/><path class="cls-2" d="M107.54,11.58a2.74,2.74,0,0,0-2.74,2.73V26.92a13.26,13.26,0,1,0,5.52,10.77V14.31a2.76,2.76,0,0,0-2.78-2.73M104.8,37.69A7.73,7.73,0,1,1,97.07,30a7.74,7.74,0,0,1,7.73,7.73Z"/><path class="cls-2" d="M145.07,11.69a2.76,2.76,0,0,0-2.78,2.73V48.31a2.76,2.76,0,1,0,5.51,0V14.42a2.73,2.73,0,0,0-2.73-2.73"/><path class="cls-2" d="M139.47,37.8c0-8.61-6.82-13.25-13.24-13.25A13.26,13.26,0,0,0,113,37.8a12.92,12.92,0,0,0,.24,2.5H137.8a2.73,2.73,0,0,0,1.67-2.5M119,35a7.8,7.8,0,0,1,7.24-4.95,7.49,7.49,0,0,1,7.3,4.95Z"/><path class="cls-1" d="M135.78,45.05a3.11,3.11,0,0,0-1.95-1.6,2.34,2.34,0,0,0-1.94.28,10,10,0,0,1-5.66,1.66A7.61,7.61,0,0,1,119.92,42l0-.06h-6.37l.06.18a13.39,13.39,0,0,0,12.66,9h.25a12.88,12.88,0,0,0,7.94-2.29,3,3,0,0,0,1.36-3.84"/><path class="cls-1" d="M173.37,45.05a3.11,3.11,0,0,0-2-1.6,2.37,2.37,0,0,0-1.95.28,10,10,0,0,1-5.66,1.66,7.61,7.61,0,0,1-6.3-3.37l0-.06H151.1l.06.18a13.39,13.39,0,0,0,12.65,9h.26A12.88,12.88,0,0,0,172,48.89a3,3,0,0,0,1.36-3.84"/><path class="cls-2" d="M177.06,37.8c0-8.61-6.82-13.25-13.25-13.25A13.26,13.26,0,0,0,150.57,37.8a12.92,12.92,0,0,0,.24,2.5h24.57a2.72,2.72,0,0,0,1.68-2.5M156.58,35a7.79,7.79,0,0,1,7.23-4.95A7.49,7.49,0,0,1,171.12,35Z"/><path class="cls-1" d="M57,2.34a7.36,7.36,0,0,0-11.47,9.17l-9.18,8.56a4.48,4.48,0,0,0-2.49-.92,4.53,4.53,0,0,0-3.17,1.23,4.47,4.47,0,0,0-1.43,3.07,4.52,4.52,0,0,0,1.22,3.16,4.51,4.51,0,0,0,6.24.21,4.39,4.39,0,0,0,1.35-3.07,4.49,4.49,0,0,0-.34-1.9L47,13.15A7.37,7.37,0,0,0,57,2.34"/><path class="cls-2" d="M53,20.8a2.88,2.88,0,0,0-4.42,1.35C46.83,27,41.87,41.51,41.87,41.51l-3.08-9a3,3,0,0,0-3.72-1.94,3,3,0,0,0-1.86,3.92L38.56,48,38,49.32a17.41,17.41,0,0,1-1.12,2.31,2.89,2.89,0,0,1-1.06,1.06,3.57,3.57,0,0,1-1.64.31,4.35,4.35,0,0,1-.82-.09l-.23,0a1.84,1.84,0,0,0-.41,0,2.5,2.5,0,0,0-.57,4.93l.32,0a16.39,16.39,0,0,0,2.6.18,10,10,0,0,0,4.53-.87,6.91,6.91,0,0,0,2.72-2.51,25.12,25.12,0,0,0,2.07-4.44s7.54-20.62,9.59-26a2.89,2.89,0,0,0-1-3.35"/><rect class="cls-2" x="205.05" y="11.69" width="0.47" height="51.02"/><path class="cls-2" d="M240.16,27.16H234.8l-1,2.8h-1.25l4.29-11.62h1.33L242.43,30h-1.25Zm-2.68-7.34-2.32,6.37h4.64Z"/><path class="cls-2" d="M249.13,20.63c2.51,0,4.38,1.84,4.38,4.71s-1.87,4.75-4.38,4.75a3.91,3.91,0,0,1-3.65-2.15V34.3h-1.17V20.77h1.17v2A3.87,3.87,0,0,1,249.13,20.63Zm-.24,1a3.42,3.42,0,0,0-3.41,3.7,3.43,3.43,0,0,0,3.41,3.71,3.4,3.4,0,0,0,3.42-3.73A3.35,3.35,0,0,0,248.89,21.66Z"/><path class="cls-2" d="M256.86,30h-1.18V20.77h1.18V22.4A3.15,3.15,0,0,1,260,20.6v1.23h-.32c-1.53,0-2.82.69-2.82,3Z"/><path class="cls-2" d="M265.32,30.09a4.38,4.38,0,0,1-4.51-4.73c0-2.93,1.87-4.73,4.51-4.73a4.13,4.13,0,0,1,4.35,4.26,6.86,6.86,0,0,1,0,.93H262a3.21,3.21,0,0,0,3.31,3.28,2.86,2.86,0,0,0,3-2.05h1.24A4,4,0,0,1,265.32,30.09ZM262,24.86h6.46a3,3,0,0,0-3.2-3.22A3.17,3.17,0,0,0,262,24.86Z"/><path class="cls-2" d="M278.71,24.71c0-2-1.11-3.09-2.8-3.09S273,22.7,273,24.94v5h-1.18V20.77H273v1.56a3.37,3.37,0,0,1,3.13-1.73c2.09,0,3.74,1.28,3.74,4V30h-1.16Z"/><path class="cls-2" d="M286.35,20.63A4,4,0,0,1,290,22.75V17.5h1.18V30H290V27.9a3.83,3.83,0,0,1-3.64,2.19c-2.52,0-4.39-1.87-4.39-4.75S283.81,20.63,286.35,20.63Zm.2,1a3.36,3.36,0,0,0-3.42,3.68,3.43,3.43,0,1,0,6.84,0A3.42,3.42,0,0,0,286.55,21.66Z"/><path class="cls-2" d="M293.57,18.16a.86.86,0,0,1,1.72,0,.86.86,0,1,1-1.72,0Zm.27,2.61H295V30h-1.18Z"/><path class="cls-2" d="M303.05,21.74,298.32,29h4.81v1H297V29l4.73-7.24h-4.64v-1h6Z"/><path class="cls-2" d="M309,20.63a3.82,3.82,0,0,1,3.63,2.16v-2h1.18V30h-1.18v-2A3.88,3.88,0,0,1,309,30.09c-2.51,0-4.38-1.87-4.38-4.75S306.45,20.63,309,20.63Zm.21,1a3.35,3.35,0,0,0-3.41,3.68,3.43,3.43,0,1,0,6.83,0A3.42,3.42,0,0,0,309.19,21.66Z"/><path class="cls-2" d="M317.73,20.77V32.13c0,1.48-.74,2.17-2.22,2.17h-.83v-1h.64c.88,0,1.23-.32,1.23-1.21V20.77Zm-1.43-2.61a.84.84,0,0,1,.86-.86.83.83,0,0,1,.84.86.84.84,0,0,1-.84.87A.86.86,0,0,1,316.3,18.16Z"/><path class="cls-2" d="M324.4,30.09a4.39,4.39,0,0,1-4.52-4.73,4.36,4.36,0,0,1,4.52-4.73,4.13,4.13,0,0,1,4.34,4.26,9.13,9.13,0,0,1,0,.93h-7.63a3.22,3.22,0,0,0,3.32,3.28,2.86,2.86,0,0,0,3-2.05h1.25A4.05,4.05,0,0,1,324.4,30.09Zm-3.32-5.23h6.46a3,3,0,0,0-3.19-3.22A3.17,3.17,0,0,0,321.08,24.86Z"/><path class="cls-2" d="M340.32,20.63c2.51,0,4.38,1.84,4.38,4.71s-1.87,4.75-4.38,4.75a3.93,3.93,0,0,1-3.65-2.15V34.3h-1.16V20.77h1.16v2A3.89,3.89,0,0,1,340.32,20.63Zm-.23,1a3.43,3.43,0,0,0-3.42,3.7,3.44,3.44,0,0,0,3.42,3.71,3.4,3.4,0,0,0,3.41-3.73A3.35,3.35,0,0,0,340.09,21.66Z"/><path class="cls-2" d="M348.05,30h-1.18V20.77h1.18V22.4a3.15,3.15,0,0,1,3.15-1.8v1.23h-.32c-1.54,0-2.83.69-2.83,3Z"/><path class="cls-2" d="M356.7,20.63a3.83,3.83,0,0,1,3.64,2.16v-2h1.18V30h-1.18v-2a3.89,3.89,0,0,1-3.66,2.17c-2.5,0-4.37-1.87-4.37-4.75S354.18,20.63,356.7,20.63Zm.22,1a3.35,3.35,0,0,0-3.42,3.68,3.43,3.43,0,1,0,6.84,0A3.42,3.42,0,0,0,356.92,21.66ZM358.76,17v1.06l-3.46,2v-.91Z"/><path class="cls-2" d="M368.13,20.63a4,4,0,0,1,4.23,3.13H371.1a2.81,2.81,0,0,0-3-2.12c-1.8,0-3.26,1.23-3.26,3.72s1.46,3.74,3.26,3.74a2.8,2.8,0,0,0,3-2.14h1.26a4,4,0,0,1-4.23,3.13c-2.59,0-4.46-1.82-4.46-4.73S365.54,20.63,368.13,20.63Z"/><path class="cls-2" d="M374.87,21.76h-1.28v-1h1.28V18.46h1.19v2.31h2.53v1h-2.53v5.71c0,1.12.39,1.48,1.45,1.48h1.08v1h-1.27c-1.6,0-2.45-.66-2.45-2.49Z"/><path class="cls-2" d="M380.25,18.16a.86.86,0,0,1,1.72,0,.86.86,0,1,1-1.72,0Zm.27,2.61h1.18V30h-1.18Z"/><path class="cls-2" d="M388.3,20.63a4,4,0,0,1,4.23,3.13h-1.27a2.8,2.8,0,0,0-3-2.12c-1.8,0-3.27,1.23-3.27,3.72s1.47,3.74,3.27,3.74a2.79,2.79,0,0,0,3-2.14h1.27a4,4,0,0,1-4.23,3.13c-2.59,0-4.46-1.82-4.46-4.73S385.71,20.63,388.3,20.63Z"/><path class="cls-2" d="M398.65,30.09a4.43,4.43,0,0,1-4.56-4.73,4.6,4.6,0,1,1,9.19,0A4.48,4.48,0,0,1,398.65,30.09Zm0-1a3.38,3.38,0,0,0,3.42-3.71,3.4,3.4,0,1,0-6.78,0C395.29,27.89,396.9,29.07,398.65,29.07Z"/><path class="cls-1" d="M236,40.12a3.83,3.83,0,0,1,3.3-1.59,4.77,4.77,0,0,1,3.64,1.62,5.86,5.86,0,0,1,1.49,4.15,5.81,5.81,0,0,1-1.49,4.13,4.74,4.74,0,0,1-3.61,1.62A3.84,3.84,0,0,1,236,48.27v7h-3.45V38.65H236Zm4.18,6.22a2.71,2.71,0,0,0,.74-2,2.76,2.76,0,0,0-.74-2.06,2.39,2.39,0,0,0-3.43,0,3.18,3.18,0,0,0,0,4.1,2.36,2.36,0,0,0,1.71.73A2.41,2.41,0,0,0,240.16,46.34Z"/><path class="cls-1" d="M247.28,48.43a5.81,5.81,0,0,1-1.5-4.13,5.86,5.86,0,0,1,1.5-4.15,4.76,4.76,0,0,1,3.64-1.62,3.83,3.83,0,0,1,3.3,1.59V38.65h3.45V49.9h-3.45V48.27a3.92,3.92,0,0,1-3.35,1.78A4.7,4.7,0,0,1,247.28,48.43Zm6.19-2.1a3.18,3.18,0,0,0,0-4.1,2.4,2.4,0,0,0-1.71-.72,2.38,2.38,0,0,0-1.72.73,2.72,2.72,0,0,0-.74,2.06,2.68,2.68,0,0,0,.74,2,2.41,2.41,0,0,0,1.72.72A2.37,2.37,0,0,0,253.47,46.33Z"/><path class="cls-1" d="M264.14,38.65v2.1a3.64,3.64,0,0,1,3.23-2.22V42h-.85a2.47,2.47,0,0,0-1.78.56,2.66,2.66,0,0,0-.6,2V49.9h-3.45V38.65Z"/><path class="cls-1" d="M269.91,48.43a5.85,5.85,0,0,1-1.49-4.13,5.9,5.9,0,0,1,1.49-4.15,4.77,4.77,0,0,1,3.64-1.62,3.81,3.81,0,0,1,3.3,1.59V38.65h3.45V49.9h-3.45V48.27a3.91,3.91,0,0,1-3.35,1.78A4.73,4.73,0,0,1,269.91,48.43Zm6.2-2.1a3.21,3.21,0,0,0,0-4.1,2.41,2.41,0,0,0-1.72-.72,2.36,2.36,0,0,0-1.71.73,2.73,2.73,0,0,0-.75,2.06,2.68,2.68,0,0,0,.75,2,2.39,2.39,0,0,0,3.43,0Z"/><path class="cls-1" d="M289.38,49.9V35h3.45V49.9Z"/><path class="cls-1" d="M296.75,48.45a5.49,5.49,0,0,1-1.7-4.19,5.4,5.4,0,0,1,1.7-4.17,6.41,6.41,0,0,1,8.38,0,5.42,5.42,0,0,1,1.68,4.17,5.54,5.54,0,0,1-1.67,4.19,5.85,5.85,0,0,1-4.18,1.6A6,6,0,0,1,296.75,48.45Zm5.87-2.08a3,3,0,0,0,.68-2.09,2.85,2.85,0,0,0-.7-2.09,2.29,2.29,0,0,0-1.68-.72,2.23,2.23,0,0,0-1.66.72,3.43,3.43,0,0,0,0,4.18,2.26,2.26,0,0,0,1.68.73A2.19,2.19,0,0,0,302.62,46.37Z"/><path class="cls-1" d="M308.26,42a3.1,3.1,0,0,1,1.28-2.51,5.38,5.38,0,0,1,3.44-1,5.8,5.8,0,0,1,3.5,1,3.44,3.44,0,0,1,1.41,2.71h-3.53a1,1,0,0,0-.41-.8,2,2,0,0,0-1-.21c-.9,0-1.35.27-1.35.83s.55.84,1.66,1a13,13,0,0,1,3,.86,2.66,2.66,0,0,1,1.66,2.54,3.08,3.08,0,0,1-1.35,2.58,5.63,5.63,0,0,1-3.41,1,6,6,0,0,1-3.43-.94,3.46,3.46,0,0,1-1.5-2.78h3.54c.09.69.57,1,1.45,1a1.69,1.69,0,0,0,1-.28.86.86,0,0,0,.39-.73c0-.29-.22-.53-.66-.7a8.17,8.17,0,0,0-1.58-.45c-.62-.12-1.24-.27-1.87-.45a3.59,3.59,0,0,1-1.59-1A2.42,2.42,0,0,1,308.26,42Z"/><path class="cls-1" d="M329.73,38.65V40.3a3.68,3.68,0,0,1,3.41-1.77,4.09,4.09,0,0,1,3.14,1.29,5,5,0,0,1,1.2,3.51V49.9h-3.43V43.79a2.29,2.29,0,0,0-.58-1.68,2.38,2.38,0,0,0-3.16,0,2.29,2.29,0,0,0-.58,1.68V49.9h-3.45V38.65Z"/><path class="cls-1" d="M345.18,50.05a5.42,5.42,0,0,1-4-1.59,5.69,5.69,0,0,1-1.57-4.2,5.64,5.64,0,0,1,1.56-4.18,5.46,5.46,0,0,1,4-1.55,5.79,5.79,0,0,1,4.12,1.53,5.55,5.55,0,0,1,1.63,4.26,6.28,6.28,0,0,1-.08,1.09h-7.74a1.84,1.84,0,0,0,.66,1.22,1.89,1.89,0,0,0,1.22.47,2.68,2.68,0,0,0,1-.13,1.91,1.91,0,0,0,.47-.26,3.13,3.13,0,0,0,.4-.44h3.73A5,5,0,0,1,348.63,49,5.76,5.76,0,0,1,345.18,50.05ZM346.66,42a2.21,2.21,0,0,0-1.44-.5,2,2,0,0,0-1.39.5,2.14,2.14,0,0,0-.7,1.28h4.21A1.81,1.81,0,0,0,346.66,42Z"/><path class="cls-1" d="M353.82,48.43a5.81,5.81,0,0,1-1.49-4.13,5.86,5.86,0,0,1,1.49-4.15,4.76,4.76,0,0,1,3.64-1.62,3.83,3.83,0,0,1,3.3,1.59V38.65h3.45V49.84a6,6,0,0,1-1.29,3.94A4.18,4.18,0,0,1,361.15,55a8.26,8.26,0,0,1-6.69-.61,4.15,4.15,0,0,1-1.71-3.2h3.39c.32.84,1.13,1.27,2.42,1.27a2.12,2.12,0,0,0,1.57-.64,2.75,2.75,0,0,0,.63-2V48.27a3.92,3.92,0,0,1-3.35,1.78A4.7,4.7,0,0,1,353.82,48.43Zm6.19-2.1a3.18,3.18,0,0,0,0-4.1,2.4,2.4,0,0,0-1.71-.72,2.38,2.38,0,0,0-1.72.73,2.72,2.72,0,0,0-.74,2.06,2.68,2.68,0,0,0,.74,2,2.41,2.41,0,0,0,1.72.72A2.37,2.37,0,0,0,360,46.33Z"/><path class="cls-1" d="M368.13,48.45a5.49,5.49,0,0,1-1.7-4.19,5.39,5.39,0,0,1,1.69-4.17,6,6,0,0,1,4.2-1.56,5.9,5.9,0,0,1,4.18,1.56,5.39,5.39,0,0,1,1.69,4.17,5.51,5.51,0,0,1-1.68,4.19,5.81,5.81,0,0,1-4.17,1.6A6,6,0,0,1,368.13,48.45ZM374,46.37a2.91,2.91,0,0,0,.69-2.09,2.86,2.86,0,0,0-.71-2.09,2.3,2.3,0,0,0-3.34,0,3.47,3.47,0,0,0,0,4.18,2.28,2.28,0,0,0,1.69.73A2.17,2.17,0,0,0,374,46.37Z"/><path class="cls-1" d="M381.14,48.47a5.7,5.7,0,0,1-1.56-4.19,5.67,5.67,0,0,1,1.56-4.19,5.51,5.51,0,0,1,4.05-1.56,5.94,5.94,0,0,1,3.49,1,4.9,4.9,0,0,1,1.9,2.92h-3.74a1.64,1.64,0,0,0-1.58-1,1.83,1.83,0,0,0-1.63.78,4.14,4.14,0,0,0,0,4.09,1.76,1.76,0,0,0,1.56.78,1.92,1.92,0,0,0,1-.22,1.82,1.82,0,0,0,.64-.79h3.74A5,5,0,0,1,388.66,49a5.72,5.72,0,0,1-3.47,1.07A5.49,5.49,0,0,1,381.14,48.47Z"/><path class="cls-1" d="M395.66,37.38a2.05,2.05,0,0,1-2.86,0,2.06,2.06,0,0,1,0-2.89,2.05,2.05,0,0,1,2.86,0,2.06,2.06,0,0,1,0,2.89ZM392.51,49.9V38.65H396V49.9Z"/><path class="cls-1" d="M399.89,48.45a5.46,5.46,0,0,1-1.71-4.19,5.4,5.4,0,0,1,1.7-4.17,6.41,6.41,0,0,1,8.38,0,5.42,5.42,0,0,1,1.68,4.17,5.5,5.5,0,0,1-1.67,4.19,5.85,5.85,0,0,1-4.18,1.6A5.93,5.93,0,0,1,399.89,48.45Zm5.86-2.08a3,3,0,0,0,.68-2.09,2.85,2.85,0,0,0-.7-2.09,2.27,2.27,0,0,0-1.68-.72,2.23,2.23,0,0,0-1.66.72,3.43,3.43,0,0,0,0,4.18,2.27,2.27,0,0,0,1.68.73A2.19,2.19,0,0,0,405.75,46.37Z"/><path class="cls-1" d="M411.4,42a3.09,3.09,0,0,1,1.27-2.51,5.38,5.38,0,0,1,3.44-1,5.8,5.8,0,0,1,3.5,1A3.38,3.38,0,0,1,421,42.22h-3.53a1,1,0,0,0-.4-.8,2,2,0,0,0-1-.21c-.9,0-1.35.27-1.35.83s.55.84,1.65,1a13.09,13.09,0,0,1,3.05.86,2.63,2.63,0,0,1,1.65,2.54,3.08,3.08,0,0,1-1.35,2.58,5.63,5.63,0,0,1-3.41,1,6,6,0,0,1-3.43-.94,3.43,3.43,0,0,1-1.49-2.78h3.53c.09.69.57,1,1.45,1a1.66,1.66,0,0,0,1-.28.86.86,0,0,0,.39-.73c0-.29-.22-.53-.65-.7a8.5,8.5,0,0,0-1.59-.45q-.93-.18-1.86-.45a3.57,3.57,0,0,1-1.6-1A2.41,2.41,0,0,1,411.4,42Z"/></g></g></svg>