<svg xmlns="http://www.w3.org/2000/svg" viewBox="0 0 32.6 32.6"><g id="Capa_2" data-name="Capa 2"><g id="Capa_1-2" data-name="Capa 1"><path d="M16.36,8.46a8,8,0,1,0,8.05,8.05A8.06,8.06,0,0,0,16.36,8.46Zm0,13.21a5.16,5.16,0,1,1,5.15-5.16A5.16,5.16,0,0,1,16.36,21.67Z" fill="#d8d8d8"/><path d="M24.88,9.84A1.92,1.92,0,1,0,23,7.92,1.91,1.91,0,0,0,24.88,9.84Z" fill="#d8d8d8"/><path d="M32.6,22.78v-13A9.82,9.82,0,0,0,22.78,0h-13A9.82,9.82,0,0,0,0,9.82v13A9.82,9.82,0,0,0,9.82,32.6h13A9.81,9.81,0,0,0,32.6,22.78Zm-29.52,0v-13A6.74,6.74,0,0,1,9.82,3.08h13a6.75,6.75,0,0,1,6.75,6.74v13a6.75,6.75,0,0,1-6.75,6.75h-13A6.75,6.75,0,0,1,3.08,22.78Z" fill="#d8d8d8"/></g></g></svg>