<svg xmlns="http://www.w3.org/2000/svg" viewBox="0 0 27.49 26.26"><g id="Capa_2" data-name="Capa 2"><g id="Capa_1-2" data-name="Capa 1"><path d="M27.49,16.11v9.72a.43.43,0,0,1-.43.43H22a.43.43,0,0,1-.43-.43v-9c0-2.38-.85-4-3-4a3.21,3.21,0,0,0-3,2.16,3.86,3.86,0,0,0-.2,1.43v9.45a.44.44,0,0,1-.43.44H10a.43.43,0,0,1-.43-.44c0-2.4.06-14.08,0-16.83A.43.43,0,0,1,10,8.55h5a.44.44,0,0,1,.43.44v2.07l0,.06h0v-.06a5.85,5.85,0,0,1,5.31-2.92c3.87,0,6.77,2.53,6.77,8ZM.82,26.26h5a.43.43,0,0,0,.43-.43V9a.44.44,0,0,0-.43-.44h-5A.44.44,0,0,0,.38,9V25.83A.44.44,0,0,0,.82,26.26Z" fill="#d8d8d8"/><circle cx="3.15" cy="3.15" r="3.15" fill="#d8d8d8"/></g></g></svg>