<svg xmlns="http://www.w3.org/2000/svg" viewBox="0 0 56.1 56.1"><g id="Capa_2" data-name="Capa 2"><g id="Capa_1-2" data-name="Capa 1"><path d="M28.05,0A28.05,28.05,0,1,0,56.1,28.05a28.08,28.08,0,0,0-28-28m7.78,16.64a.42.42,0,0,1-.42.42H32a1.5,1.5,0,0,0-1.49,1.5v3.53h4.79a.42.42,0,0,1,.42.46l-.42,5a.42.42,0,0,1-.42.39H30.54V44.44a.42.42,0,0,1-.43.42h-6a.42.42,0,0,1-.42-.42V27.92h-3a.42.42,0,0,1-.42-.43v-5a.42.42,0,0,1,.42-.43h3v-4.8a6.05,6.05,0,0,1,6.06-6h5.7a.42.42,0,0,1,.42.42Z" fill="#745ca3"/></g></g></svg>