<svg xmlns="http://www.w3.org/2000/svg" viewBox="0 0 200.25 198.83"><g id="Capa_2" data-name="Capa 2"><g id="Capa_1-2" data-name="Capa 1"><rect x="81.59" y="179.58" width="19.24" height="6.41" fill="#d5d5d5"/><path d="M200.25,52.21l-7.88-2.63,3.71-7.42L183.74,29.82l-7.42,3.71-2.63-7.88H156.25l-2.63,7.88-7.42-3.71L133.86,42.16l1.37,2.74h-14A60.42,60.42,0,0,0,63.13,0H61.57a60.15,60.15,0,0,0-34.5,109.42,15,15,0,0,1,6.42,12.32v.12H12L0,153.93H11v28.86a16.06,16.06,0,0,0,16,16H97.63a16.06,16.06,0,0,0,16-16V153.93h11l-12-32.07H91.21v-.12a15,15,0,0,1,6.42-12.32A60,60,0,0,0,120.82,77h14.41l-1.37,2.74L146.2,92l7.42-3.71,2.63,7.88h17.44l2.63-7.88L183.74,92,196.08,79.7l-3.71-7.42,7.88-2.62ZM58.9,121.86,54.54,67.34h8a8,8,0,0,0,1.7.93l5.69,2.13L65.8,121.86Zm7.58-59.6a1.42,1.42,0,0,1,0-2.66L84.8,52.73v16.4Zm24.73,1.88h38.48v5.52l2.69.89H91.21Zm38.48-11.93v5.51H91.21V51.31h41.17Zm-98.94,52A53.74,53.74,0,0,1,61.57,6.41h1.56A54,54,0,0,1,114.65,44.9H87.42L64.23,53.59a7.88,7.88,0,0,0-5.09,7.34H54l-.6-7.44a12.89,12.89,0,0,0-12.78-11.8H39.9a12.83,12.83,0,1,0,0,25.65h8.2l4.36,54.52H39.9v-.12a21.46,21.46,0,0,0-9.15-17.57ZM47.59,60.93H39.9a6.42,6.42,0,0,1,0-12.83h.74A6.45,6.45,0,0,1,47,54ZM16.47,128.27H51.31l-7.22,19.25H9.25Zm1,54.52V153.93H48.54l7.4-19.73v58.21H27.07a9.63,9.63,0,0,1-9.62-9.62Zm89.8,0a9.63,9.63,0,0,1-9.62,9.62H62.35V134.2l7.4,19.73h37.5Zm8.2-35.27H74.19L67,128.27h41.25ZM94,104.17a21.46,21.46,0,0,0-9.15,17.57v.12H72.24l3.93-49.11L87.42,77h26.72A53.69,53.69,0,0,1,94,104.17ZM193.83,65l-7.36,2.46-.54,1.41c-.16.41-.32.82-.49,1.22l-.63,1.38,3.47,6.94-5.8,5.8-6.93-3.47-1.39.62c-.4.18-.8.34-1.2.49l-1.43.54-2.46,7.37h-8.2l-2.46-7.37L157,81.88c-.41-.15-.81-.31-1.2-.49l-1.39-.62-6.93,3.47-5.8-5.8,3.46-6.94-.62-1.38c-.18-.41-.34-.81-.5-1.22l-.54-1.41L136.11,65v-8.2l7.36-2.46L144,53c.16-.41.32-.82.49-1.22l.63-1.39-3.47-6.93,5.8-5.8,6.93,3.47,1.39-.63L157,40l1.43-.54,2.46-7.36h8.2l2.46,7.37L173,40c.41.15.81.31,1.2.49l1.39.62,6.93-3.47,5.8,5.8-3.46,6.94.62,1.39c.18.4.34.8.5,1.21l.54,1.41,7.35,2.46Z" fill="#d5d5d5"/><path d="M165,44.9a16,16,0,1,0,16,16,16,16,0,0,0-16-16Zm0,25.65a9.62,9.62,0,1,1,9.62-9.62A9.62,9.62,0,0,1,165,70.55Z" fill="#d5d5d5"/><path d="M20.66,60.93H14.25a49.48,49.48,0,0,0,.48,6.87l6.35-.9a42.69,42.69,0,0,1-.42-6Z" fill="#d5d5d5"/><path d="M22.39,72.84l-6.15,1.83A48,48,0,0,0,38.29,102.6l3.22-5.55A41.55,41.55,0,0,1,22.39,72.84Z" fill="#d5d5d5"/><rect x="52.73" y="19.24" width="6.41" height="6.41" fill="#d5d5d5"/><rect x="39.9" y="19.24" width="6.41" height="6.41" fill="#d5d5d5"/><rect x="78.38" y="19.24" width="6.41" height="6.41" fill="#d5d5d5"/><rect x="65.56" y="19.24" width="6.41" height="6.41" fill="#d5d5d5"/></g></g></svg>