<svg xmlns="http://www.w3.org/2000/svg" viewBox="0 0 197.7 215.67"><g id="Capa_2" data-name="Capa 2"><g id="Capa_1-2" data-name="Capa 1"><path d="M151,147.37V111.43a32.38,32.38,0,0,0-32.35-32.35H61.11a32.38,32.38,0,0,0-32.35,32.35v46.73H36V111.43A25.18,25.18,0,0,1,61.11,86.27h5.7l20.51,20.51a3.6,3.6,0,0,0,5.08,0l20.52-20.51h5.7a25.19,25.19,0,0,1,25.16,25.16v35.94ZM89.86,99.16,77,86.27h25.78Z" fill="#d5d5d5"/><rect x="53.92" y="118.62" width="7.19" height="32.35" fill="#d5d5d5"/><rect x="118.62" y="118.62" width="7.19" height="25.16" fill="#d5d5d5"/><path d="M194.1,158.16H148.26a55.36,55.36,0,0,0-25.81-6.8l-.81,0A55.66,55.66,0,0,0,95,158.11l-26.71,0a14.38,14.38,0,0,0-14.38,14.38,4.85,4.85,0,0,0,0,.85,13.7,13.7,0,0,0,.47,2.91L34.17,167l-.32-.16-12.11-5.53A15.33,15.33,0,0,0,0,175.27v.79a15.2,15.2,0,0,0,8.49,13.71L55,213a25.35,25.35,0,0,0,11.24,2.63H194.1a3.6,3.6,0,0,0,3.6-3.59V161.75a3.6,3.6,0,0,0-3.6-3.59Zm-50.32,50.32H66.21a18.34,18.34,0,0,1-8.06-1.88L11.7,183.32a8.06,8.06,0,0,1-4.51-7.26v-.79a8.15,8.15,0,0,1,11.55-7.41l12,5.49.33.15L59.6,186.59a3.76,3.76,0,0,0,1.51.32h39.54v-7.18H68.3a7.17,7.17,0,0,1-7.16-6.87l0-.36a7.18,7.18,0,0,1,7.19-7.15H95.87a3.57,3.57,0,0,0,1.75-.46l.87-.49a48.88,48.88,0,0,1,23-5.92,3,3,0,0,0,.67.07,48,48,0,0,1,21.59,5.36Zm46.73,0H151V165.35h39.54Z" fill="#d5d5d5"/><rect x="158.16" y="194.1" width="7.19" height="7.19" fill="#d5d5d5"/><path d="M89.86,71.89a28.79,28.79,0,0,0,28.76-28.76V28.76a28.76,28.76,0,1,0-57.51,0V43.13A28.78,28.78,0,0,0,89.86,71.89ZM68.3,28.76a21.57,21.57,0,1,1,43.13,0V43.13a21.57,21.57,0,1,1-43.13,0Z" fill="#d5d5d5"/><path d="M82.67,28.76A7.22,7.22,0,0,1,87.47,22l-2.4-6.78a14.42,14.42,0,0,0-9.59,13.56v3.59h7.19Z" fill="#d5d5d5"/></g></g></svg>