<svg xmlns="http://www.w3.org/2000/svg" viewBox="0 0 279.13 91.4"><g id="Capa_2" data-name="Capa 2"><g id="Capa_1-2" data-name="Capa 1"><path d="M21.35,25.45A21.38,21.38,0,0,0,0,46.8V85.16a4.62,4.62,0,0,0,9.23,0V64.4A21.36,21.36,0,1,0,21.35,25.45m0,33.47a12.09,12.09,0,0,1-12.12-12V46.8A12.12,12.12,0,1,1,21.35,58.92" fill="#fff"/><path d="M106.9,38.7c-12.42.19-21,9.4-20.89,20.88v16.5a4.35,4.35,0,1,0,8.7,0V59.58a12.19,12.19,0,1,1,24.38,0v16.5a4.35,4.35,0,1,0,8.69,0V59.58A20.79,20.79,0,0,0,106.9,38.7" fill="#fff"/><path d="M169.52,18.26a4.31,4.31,0,0,0-4.3,4.31V42.44a20.9,20.9,0,1,0,8.69,17V22.57a4.35,4.35,0,0,0-4.39-4.31m-4.3,41.16a12.15,12.15,0,1,1,0-.08Z" fill="#fff"/><path d="M228.7,18.42a4.36,4.36,0,0,0-4.39,4.31V76.16a4.35,4.35,0,1,0,8.69,0V22.73a4.31,4.31,0,0,0-4.3-4.31" fill="#fff"/><path d="M219.87,59.58C219.87,46,209.11,38.7,199,38.7A20.91,20.91,0,0,0,178.1,59.58a21.42,21.42,0,0,0,.38,4h38.75a4.31,4.31,0,0,0,2.64-4M187.58,55.2A12.29,12.29,0,0,1,199,47.39c4.15,0,9.59,2,11.51,7.81Z" fill="#fff"/><path d="M214,71A4.91,4.91,0,0,0,211,68.49a3.77,3.77,0,0,0-3.07.44A15.67,15.67,0,0,1,199,71.56a12,12,0,0,1-10-5.32l-.06-.09h-10l.09.28a21.12,21.12,0,0,0,20,14.25h.4a20.29,20.29,0,0,0,12.51-3.61c1.91-1.25,3.32-3.6,2.14-6" fill="#fff"/><path d="M273.3,71a4.91,4.91,0,0,0-3.06-2.53,3.77,3.77,0,0,0-3.07.44,15.68,15.68,0,0,1-8.93,2.63,12,12,0,0,1-9.94-5.32l-.06-.09H238.19l.1.28a21.11,21.11,0,0,0,20,14.25h.41a20.29,20.29,0,0,0,12.51-3.61c1.91-1.25,3.32-3.6,2.14-6" fill="#fff"/><path d="M279.13,59.58c0-13.56-10.76-20.88-20.89-20.88a20.91,20.91,0,0,0-20.88,20.88,20.59,20.59,0,0,0,.38,4h38.74a4.3,4.3,0,0,0,2.65-4m-32.3-4.38a12.3,12.3,0,0,1,11.41-7.81c4.15,0,9.6,2,11.52,7.81Z" fill="#fff"/><path d="M89.84,3.69A11.61,11.61,0,0,0,71.76,18.15L57.29,31.64a7,7,0,0,0-3.94-1.45A7,7,0,0,0,48,42a7.11,7.11,0,0,0,9.83.33A7,7,0,0,0,60,37.43a7.36,7.36,0,0,0-.55-3l14.7-13.72a11.61,11.61,0,0,0,15.68-17" fill="#fff"/><path d="M83.56,32.79a4.55,4.55,0,0,0-7,2.13C73.82,42.63,66,65.44,66,65.44L61.15,51.29a4.76,4.76,0,0,0-5.87-3.06,4.66,4.66,0,0,0-2.92,6.17l8.43,21.22-.88,2.13a25.77,25.77,0,0,1-1.77,3.63,4.52,4.52,0,0,1-1.68,1.69,5.73,5.73,0,0,1-2.58.48,6.47,6.47,0,0,1-1.29-.15l-.36-.08a4.62,4.62,0,0,0-.65,0,3.93,3.93,0,0,0-.9,7.76l.51.09a25.7,25.7,0,0,0,4.1.28A15.75,15.75,0,0,0,62.43,90a10.91,10.91,0,0,0,4.28-4,40,40,0,0,0,3.27-7s11.88-32.5,15.12-41a4.53,4.53,0,0,0-1.54-5.27" fill="#fff"/></g></g></svg>