<svg xmlns="http://www.w3.org/2000/svg" viewBox="0 0 177.06 57.98"><g id="Capa_2" data-name="Capa 2"><g id="Capa_1-2" data-name="Capa 1"><path d="M13.54,16.15A13.56,13.56,0,0,0,0,29.69V54a2.93,2.93,0,0,0,5.86,0V40.85a13.55,13.55,0,1,0,7.68-24.7m0,21.23a7.67,7.67,0,0,1-7.68-7.64v0a7.69,7.69,0,1,1,7.68,7.69" fill="#a159f9"/><path d="M67.81,24.55c-7.88.12-13.33,6-13.25,13.25V48.26a2.76,2.76,0,1,0,5.52,0V37.8a7.74,7.74,0,1,1,15.47,0V48.26a2.76,2.76,0,1,0,5.51,0V37.8A13.18,13.18,0,0,0,67.81,24.55" fill="#3a0563"/><path d="M107.54,11.58a2.74,2.74,0,0,0-2.74,2.73V26.92a13.26,13.26,0,1,0,5.52,10.77V14.31a2.76,2.76,0,0,0-2.78-2.73M104.8,37.69A7.73,7.73,0,1,1,97.07,30a7.74,7.74,0,0,1,7.73,7.73Z" fill="#3a0563"/><path d="M145.07,11.69a2.76,2.76,0,0,0-2.78,2.73V48.31a2.76,2.76,0,1,0,5.51,0V14.42a2.73,2.73,0,0,0-2.73-2.73" fill="#3a0563"/><path d="M139.47,37.8c0-8.61-6.82-13.25-13.24-13.25A13.26,13.26,0,0,0,113,37.8a12.92,12.92,0,0,0,.24,2.5H137.8a2.73,2.73,0,0,0,1.67-2.5M119,35a7.8,7.8,0,0,1,7.24-4.95,7.49,7.49,0,0,1,7.3,4.95Z" fill="#3a0563"/><path d="M135.78,45.05a3.11,3.11,0,0,0-1.95-1.6,2.34,2.34,0,0,0-1.94.28,10,10,0,0,1-5.66,1.66A7.61,7.61,0,0,1,119.92,42l0-.06h-6.37l.06.18a13.39,13.39,0,0,0,12.66,9h.25a12.88,12.88,0,0,0,7.94-2.29,3,3,0,0,0,1.36-3.84" fill="#a159f9"/><path d="M173.37,45.05a3.11,3.11,0,0,0-2-1.6,2.37,2.37,0,0,0-1.95.28,10,10,0,0,1-5.66,1.66,7.61,7.61,0,0,1-6.3-3.37l0-.06H151.1l.06.18a13.39,13.39,0,0,0,12.65,9h.26A12.88,12.88,0,0,0,172,48.89a3,3,0,0,0,1.36-3.84" fill="#a159f9"/><path d="M177.06,37.8c0-8.61-6.82-13.25-13.25-13.25A13.26,13.26,0,0,0,150.57,37.8a12.92,12.92,0,0,0,.24,2.5h24.57a2.72,2.72,0,0,0,1.68-2.5M156.58,35a7.79,7.79,0,0,1,7.23-4.95A7.49,7.49,0,0,1,171.12,35Z" fill="#3a0563"/><path d="M57,2.34a7.36,7.36,0,0,0-11.47,9.17l-9.18,8.56a4.48,4.48,0,0,0-2.49-.92,4.53,4.53,0,0,0-3.17,1.23,4.47,4.47,0,0,0-1.43,3.07,4.52,4.52,0,0,0,1.22,3.16,4.51,4.51,0,0,0,6.24.21,4.39,4.39,0,0,0,1.35-3.07,4.49,4.49,0,0,0-.34-1.9L47,13.15A7.37,7.37,0,0,0,57,2.34" fill="#a159f9"/><path d="M53,20.8a2.88,2.88,0,0,0-4.42,1.35C46.83,27,41.87,41.51,41.87,41.51l-3.08-9a3,3,0,0,0-3.72-1.94,3,3,0,0,0-1.86,3.92L38.56,48,38,49.32a17.41,17.41,0,0,1-1.12,2.31,2.89,2.89,0,0,1-1.06,1.06,3.57,3.57,0,0,1-1.64.31,4.35,4.35,0,0,1-.82-.09l-.23,0a1.84,1.84,0,0,0-.41,0,2.5,2.5,0,0,0-.57,4.93l.32,0a16.39,16.39,0,0,0,2.6.18,10,10,0,0,0,4.53-.87,6.91,6.91,0,0,0,2.72-2.51,25.12,25.12,0,0,0,2.07-4.44s7.54-20.62,9.59-26a2.89,2.89,0,0,0-1-3.35" fill="#3a0563"/></g></g></svg>