<svg xmlns="http://www.w3.org/2000/svg" viewBox="0 0 55.73 55.73"><g id="Capa_2" data-name="Capa 2"><g id="Capa_1-2" data-name="Capa 1"><path d="M27.87,55.73A27.87,27.87,0,1,1,55.73,27.87,27.9,27.9,0,0,1,27.87,55.73m9.39-39.17a2.06,2.06,0,1,0,2.06,2.06,2.06,2.06,0,0,0-2.06-2.06M28.1,19.2a8.67,8.67,0,1,0,8.66,8.67A8.68,8.68,0,0,0,28.1,19.2m0,14.22a5.55,5.55,0,1,1,5.54-5.55,5.56,5.56,0,0,1-5.54,5.55M45.57,20.67A10.56,10.56,0,0,0,35,10.1H21.06A10.56,10.56,0,0,0,10.5,20.67V34.61A10.56,10.56,0,0,0,21.06,45.18H35A10.56,10.56,0,0,0,45.57,34.61Zm-3.3,13.94A7.26,7.26,0,0,1,35,41.87H21.06a7.26,7.26,0,0,1-7.25-7.26V20.67a7.26,7.26,0,0,1,7.25-7.26H35a7.26,7.26,0,0,1,7.26,7.26Z" fill="#745ca3"/></g></g></svg>