<svg xmlns="http://www.w3.org/2000/svg" viewBox="0 0 56 56"><g id="Capa_2" data-name="Capa 2"><g id="Capa_1-2" data-name="Capa 1"><path d="M28,0A28,28,0,1,0,56,28,28,28,0,0,0,28,0M21,40.59a.47.47,0,0,1-.47.47H15.14a.47.47,0,0,1-.47-.47V22.48a.47.47,0,0,1,.47-.47h5.39a.47.47,0,0,1,.47.47Zm-3.36-21A3.39,3.39,0,1,1,21,16.2a3.39,3.39,0,0,1-3.39,3.39m26.19,21a.47.47,0,0,1-.47.47H38a.47.47,0,0,1-.47-.47V30.87c0-2.56-.92-4.31-3.21-4.31A3.47,3.47,0,0,0,31,28.88a4.45,4.45,0,0,0-.21,1.54V40.59a.47.47,0,0,1-.46.47H25a.47.47,0,0,1-.47-.47c0-2.59.07-15.15,0-18.11A.47.47,0,0,1,25,22h5.39a.47.47,0,0,1,.46.47v2.23a6.3,6.3,0,0,1,5.71-3.15c4.17,0,7.29,2.72,7.29,8.57Z" fill="#745ca3"/></g></g></svg>