<svg xmlns="http://www.w3.org/2000/svg" viewBox="0 0 192.22 205.52"><g id="Capa_2" data-name="Capa 2"><g id="Capa_1-2" data-name="Capa 1"><path d="M136.46,118.65a66.18,66.18,0,0,0,2.2-103.16,3,3,0,1,0-3.87,4.61,60.18,60.18,0,0,1-2,93.78,16.3,16.3,0,0,0-6.44,13V133H112.42v-7.08a6.23,6.23,0,0,0-6.22-6.22h-.43v-7.28h3.64a9.66,9.66,0,1,0-9.66-9.66v3.64H92.47v-3.64a9.66,9.66,0,1,0-9.66,9.66h3.64v7.28H86a6.23,6.23,0,0,0-6.22,6.22V133H65.87v-6.14a16.33,16.33,0,0,0-6.44-13A60.12,60.12,0,0,1,98.21,6.06,59.47,59.47,0,0,1,125,13.38a3,3,0,1,0,2.89-5.28A66.11,66.11,0,0,0,29.93,65.45,65.59,65.59,0,0,0,36.8,95.58a66.73,66.73,0,0,0,19,23.06,10.32,10.32,0,0,1,4.1,8.22v6.62a9.66,9.66,0,0,0,0,18.36v27.74a12.65,12.65,0,0,0,12.64,12.64h.87A15.87,15.87,0,0,0,89,205.52h14.21a15.86,15.86,0,0,0,15.64-13.3h.87a12.65,12.65,0,0,0,12.64-12.64V151.84a9.66,9.66,0,0,0,0-18.36v-6.62a10.31,10.31,0,0,1,4.09-8.21Zm-30.69-15.89a3.64,3.64,0,1,1,3.64,3.64h-3.64Zm-23,3.64a3.64,3.64,0,1,1,3.64-3.64v3.64Zm9.66,6h7.28v7.28H92.47Zm-6.65,13.5a.2.2,0,0,1,.2-.2H106.2a.2.2,0,0,1,.2.2V133H85.82Zm40.53,33.68H85.19a3,3,0,0,0,0,6h41.16v7.28H65.87v-7.28h7.28a3,3,0,0,0,0-6H65.87v-7.28h60.48Zm-23.13,39.9H89a9.85,9.85,0,0,1-9.5-7.28h33.2a9.84,9.84,0,0,1-9.49,7.28Zm16.51-13.3H72.49a6.63,6.63,0,0,1-6.62-6.62v-.66h60.48v.66a6.63,6.63,0,0,1-6.62,6.62Zm9.63-39.9H62.86a3.64,3.64,0,0,1,0-7.28h66.5a3.64,3.64,0,0,1,0,7.28Z" fill="#d5d5d5"/><path d="M19.32,66.19a3,3,0,0,0-3-3H3a3,3,0,1,0,0,6h13.3a3,3,0,0,0,3-3Z" fill="#d5d5d5"/><path d="M25.5,103.48,14,110.13a3,3,0,0,0,1.51,5.62,3,3,0,0,0,1.5-.41l11.52-6.65a3,3,0,1,0-3-5.21Z" fill="#d5d5d5"/><path d="M178.24,110.13l-11.51-6.65a3,3,0,1,0-3,5.21l11.51,6.65a3,3,0,1,0,3-5.21Z" fill="#d5d5d5"/><path d="M189.21,63.18h-13.3a3,3,0,1,0,0,6h13.3a3,3,0,0,0,0-6Z" fill="#d5d5d5"/><path d="M165.22,29.3a3,3,0,0,0,1.51-.41l11.51-6.65a3,3,0,1,0-3-5.21l-11.51,6.65a3,3,0,0,0,1.5,5.62Z" fill="#d5d5d5"/><path d="M14,22.24,25.5,28.89a2.92,2.92,0,0,0,1.5.41,3,3,0,0,0,1.51-5.62L17,17a3,3,0,1,0-3,5.21Z" fill="#d5d5d5"/><path d="M96.11,39.9a9.66,9.66,0,1,0,9.66,9.66,9.67,9.67,0,0,0-9.66-9.66Zm0,13.3a3.64,3.64,0,1,1,3.64-3.64,3.64,3.64,0,0,1-3.64,3.64Z" fill="#d5d5d5"/><path d="M123.52,38.35a2.44,2.44,0,0,1-.1-.24l2.15-3.58a6.32,6.32,0,0,0-.95-7.74l-5.74-5.73a6.31,6.31,0,0,0-7.73-1l-3.59,2.15-.23-.09-1-4.06a6.32,6.32,0,0,0-6.15-4.8h-8.1a6.32,6.32,0,0,0-6.15,4.8l-1,4.06-.24.09L81.08,20.1a6.33,6.33,0,0,0-7.74,1L67.6,26.79a6.34,6.34,0,0,0-.95,7.74l2.15,3.58a2.44,2.44,0,0,1-.1.24l-4,1a6.33,6.33,0,0,0-4.8,6.15v8.11a6.31,6.31,0,0,0,4.8,6.14l4,1a1.6,1.6,0,0,1,.1.23L66.65,64.6a6.34,6.34,0,0,0,.95,7.74l5.74,5.73a6.32,6.32,0,0,0,7.74,1l3.58-2.15.24.1,1,4a6.32,6.32,0,0,0,6.15,4.8h8.1a6.32,6.32,0,0,0,6.15-4.8l1-4,.23-.1L111.15,79a6.31,6.31,0,0,0,7.73-1l5.74-5.73a6.33,6.33,0,0,0,.95-7.74L123.42,61a1.6,1.6,0,0,1,.1-.23l4-1a6.31,6.31,0,0,0,4.8-6.14V45.51a6.33,6.33,0,0,0-4.8-6.15Zm2.83,15.27a.31.31,0,0,1-.24.3l-5.58,1.4a3,3,0,0,0-2.12,1.94,23,23,0,0,1-1.09,2.63,3,3,0,0,0,.13,2.87l3,4.93a.33.33,0,0,1,0,.39l-5.73,5.73a.33.33,0,0,1-.39,0l-4.93-3a3,3,0,0,0-2.87-.13,23.77,23.77,0,0,1-2.63,1.09A3,3,0,0,0,101.87,74l-1.4,5.58a.31.31,0,0,1-.31.24h-8.1a.32.32,0,0,1-.31-.24L90.36,74a3,3,0,0,0-1.94-2.12,23.15,23.15,0,0,1-2.64-1.09,3.07,3.07,0,0,0-1.32-.3,3,3,0,0,0-1.55.43l-4.93,3a.32.32,0,0,1-.38,0l-5.74-5.73a.33.33,0,0,1,0-.39l3-4.93a3,3,0,0,0,.12-2.87,25,25,0,0,1-1.09-2.63,3,3,0,0,0-2.11-1.94l-5.59-1.4a.31.31,0,0,1-.24-.3V45.51a.32.32,0,0,1,.24-.31l5.59-1.39a3,3,0,0,0,2.11-1.94,25.13,25.13,0,0,1,1.09-2.64,3,3,0,0,0-.12-2.87l-3-4.93a.34.34,0,0,1,0-.39l5.74-5.73a.32.32,0,0,1,.38,0l4.93,3a3,3,0,0,0,2.87.13,23.15,23.15,0,0,1,2.64-1.09,3,3,0,0,0,1.94-2.11l1.39-5.59a.32.32,0,0,1,.31-.24h8.1a.32.32,0,0,1,.31.24l1.4,5.59a3,3,0,0,0,1.93,2.11,23.15,23.15,0,0,1,2.64,1.09,3,3,0,0,0,2.87-.13l4.93-3a.33.33,0,0,1,.39,0L120.36,31a.34.34,0,0,1,0,.39l-3,4.93a3,3,0,0,0-.13,2.87,23.15,23.15,0,0,1,1.09,2.64,3,3,0,0,0,2.12,1.94l5.58,1.39a.32.32,0,0,1,.24.31Z" fill="#d5d5d5"/></g></g></svg>