<svg xmlns="http://www.w3.org/2000/svg" viewBox="0 0 211.73 211.73"><g id="Capa_2" data-name="Capa 2"><g id="Capa_1-2" data-name="Capa 1"><path d="M153.67,47.81a37.57,37.57,0,1,0,37.57,37.56,37.6,37.6,0,0,0-37.57-37.56Zm0,68.3a30.74,30.74,0,1,1,30.74-30.74,30.77,30.77,0,0,1-30.74,30.74Z" fill="#d5d5d5"/><path d="M153.67,68.3a17.08,17.08,0,1,0,17.08,17.07A17.09,17.09,0,0,0,153.67,68.3Zm0,27.32a10.25,10.25,0,1,1,10.25-10.25,10.26,10.26,0,0,1-10.25,10.25Z" fill="#d5d5d5"/><path d="M211.73,98.11V72.64l-9.34-3A51.8,51.8,0,0,0,199.25,62l4.48-8.7-18-18-8.14,4.18V0H56.64L20.49,36.15v128a23.89,23.89,0,0,0,3.41,47.54H175l32-15.61.32-.18a9.58,9.58,0,0,0,0-16.24l-29.65-14.5v-34l8.14,4.19,18-18-4.48-8.7a51,51,0,0,0,3.14-7.62Zm-41-61c-.46-.16-.89-.34-1.35-.49l-3-9.34H140.93l-3,9.33a53.11,53.11,0,0,0-7.61,3.14l-8.7-4.48-18,18L108.1,62A50.3,50.3,0,0,0,105,69.64l-9.34,3V98.11l9.33,3a50.6,50.6,0,0,0,3.14,7.62l-4.48,8.7,18,18,8.7-4.48a52.11,52.11,0,0,0,7.62,3.14l3,9.34h25.47l3-9.34c.46-.15.89-.33,1.35-.49v30.32H27.32V41H61.47V6.83H170.75Zm0,133.6v13.66H41V170.75ZM41,191.24H170.75V204.9H41ZM32.15,34.15,54.64,11.66V34.15ZM6.83,187.82A17.09,17.09,0,0,1,23.9,170.75H34.15V204.9H23.9A17.09,17.09,0,0,1,6.83,187.82Zm198.07,0a2.72,2.72,0,0,1-1.18,2.25l-26.14,12.77v-30l26.14,12.77a2.73,2.73,0,0,1,1.18,2.25ZM196.85,95.7l-.5,1.77a43.64,43.64,0,0,1-3.94,9.54l-.89,1.61,3.86,7.49-11,11-7.5-3.86-1.6.9a44.11,44.11,0,0,1-9.54,3.93l-1.77.5-2.57,8H145.92l-2.58-8-1.77-.5a44.32,44.32,0,0,1-9.54-3.93l-1.6-.9-7.5,3.86-11-11,3.86-7.49-.9-1.61A44.14,44.14,0,0,1,111,97.47l-.5-1.77-8-2.57V77.62l8-2.57.5-1.77a44.13,44.13,0,0,1,3.94-9.55l.9-1.6L112,54.63l11-11,7.5,3.86,1.6-.9a44.34,44.34,0,0,1,9.54-3.94l1.77-.49,2.58-8.05h15.5L164,42.2l1.77.49a44.14,44.14,0,0,1,9.54,3.94l1.6.9,7.5-3.86,11,11-3.86,7.5.89,1.6a43.63,43.63,0,0,1,3.94,9.55l.5,1.77,8.05,2.57V93.13Z" fill="#d5d5d5"/><path d="M34.15,58.05A10.26,10.26,0,0,0,44.39,68.3H78.54a3.42,3.42,0,1,1,0,6.83H61.47a10.25,10.25,0,1,0,0,20.49H68.3a3.42,3.42,0,0,1,0,6.83H44.39a10.25,10.25,0,0,0,0,20.49H92.2v-6.83H44.39a3.42,3.42,0,0,1,0-6.83H68.3a10.25,10.25,0,0,0,0-20.49H61.47a3.42,3.42,0,1,1,0-6.83H78.54a10.25,10.25,0,1,0,0-20.49H44.39a3.42,3.42,0,0,1,0-6.83H95.62V47.81H44.39A10.25,10.25,0,0,0,34.15,58.05Z" fill="#d5d5d5"/><rect x="34.15" y="136.6" width="6.83" height="6.83" fill="#d5d5d5"/><rect x="47.81" y="136.6" width="47.81" height="6.83" fill="#d5d5d5"/><rect x="34.15" y="150.26" width="61.47" height="6.83" fill="#d5d5d5"/><rect x="102.45" y="150.26" width="6.83" height="6.83" fill="#d5d5d5"/><rect x="129.77" y="150.26" width="6.83" height="6.83" fill="#d5d5d5"/><rect x="116.11" y="150.26" width="6.83" height="6.83" fill="#d5d5d5"/><rect x="157.09" y="13.66" width="6.83" height="6.83" fill="#d5d5d5"/><rect x="129.77" y="13.66" width="6.83" height="6.83" fill="#d5d5d5"/><rect x="143.43" y="13.66" width="6.83" height="6.83" fill="#d5d5d5"/></g></g></svg>