<svg xmlns="http://www.w3.org/2000/svg" viewBox="0 0 238.68 239.06"><g id="Capa_2" data-name="Capa 2"><g id="Capa_1-2" data-name="Capa 1"><path d="M141.89,14.79a75.79,75.79,0,0,0-47.5,129.14c29,29,78.15,29,107.19,0A75.8,75.8,0,0,0,157.89,15.19a3.5,3.5,0,1,0-.91,7,68.12,68.12,0,0,1,39.64,19.55,68.88,68.88,0,0,1,0,97.29c-26.29,26.3-70.93,26.35-97.28,0A68.79,68.79,0,0,1,142.45,21.77a3.5,3.5,0,1,0-.56-7Z" fill="#d5d5d5"/><path d="M212.29,26.43A90.25,90.25,0,0,0,58.55,82.55a3.5,3.5,0,1,0,7,.59,83.26,83.26,0,1,1,0,14.65,3.5,3.5,0,0,0-7,.63,90.39,90.39,0,0,0,19.1,47.8l-7.09,7.1c-4.35-5.16-11.9-7.93-17.52-2.3a10.76,10.76,0,0,0-1.37,13.53L4.83,211.43C-10.1,226.37,13,249,27.7,234.3l17.36-17.37a3.5,3.5,0,1,0-5-5L22.75,229.34c-8.26,8.26-21.23-4.7-13-13l46.73-46.72,13,13L50.9,201.19a3.5,3.5,0,0,0,5,4.95l18.73-18.72c4.67,2.76,9.68,2.89,13.53-1.37,5.15-5.69,2.77-12.9-2.31-17.52l7.14-7.14c35.43,27.69,87.65,24.37,119.35-7.33a90.36,90.36,0,0,0,0-127.63ZM83.16,181.1a3.75,3.75,0,0,1-5.3,0L58,161.27A3.76,3.76,0,0,1,58,156a4,4,0,0,1,5.32,0l19.83,19.83a3.75,3.75,0,0,1,0,5.31Zm-2.31-17.52-5.3-5.31,6.71-6.71q2.55,2.76,5.32,5.29Z" fill="#d5d5d5"/><path d="M148.47,28.94a3.5,3.5,0,0,0-3.5,3.5v11a47.08,47.08,0,0,0-43.38,43.46H90.49a3.5,3.5,0,0,0,0,7H101.6c1.72,22.72,20.73,41.62,43.37,43.3v11.19a3.51,3.51,0,0,0,7,0V137.22c22.58-1.67,41.65-20.61,43.37-43.3h11.11a3.5,3.5,0,0,0,0-7h-11.1A47.08,47.08,0,0,0,152,43.46v-11a3.51,3.51,0,0,0-3.51-3.5ZM159.3,80.51A11.1,11.1,0,0,1,148.23,91.6h0a11.1,11.1,0,0,1-11.07-11.09v-5a11.09,11.09,0,1,1,22.18,0Zm-18.62,18.1h15.06l15.62,3.91a3.45,3.45,0,0,1,2.53,3.13v15.56a40.29,40.29,0,0,1-51.36-.45V105.65a3.45,3.45,0,0,1,2.53-3.13Zm47.8-8.27a39.75,39.75,0,0,1-7.59,23.4v-8.09c0-6.27-5.28-9.25-7.71-9.9l-11.72-2.93a18,18,0,0,0,4.84-12.3v-5a18.09,18.09,0,1,0-36.18,0v5A18,18,0,0,0,135,92.82l-11.92,3a10.44,10.44,0,0,0-7.51,9.84V113a40,40,0,1,1,72.95-22.66Z" fill="#d5d5d5"/></g></g></svg>